<?xml version="1.0" encoding="UTF-8"?>
<!DOCTYPE svg PUBLIC "-//W3C//DTD SVG 1.1//EN" "http://www.w3.org/Graphics/SVG/1.1/DTD/svg11.dtd">
<svg xmlns="http://www.w3.org/2000/svg" version="1.1" width="512px" height="512px" style="shape-rendering:geometricPrecision; text-rendering:geometricPrecision; image-rendering:optimizeQuality; fill-rule:evenodd; clip-rule:evenodd" xmlns:xlink="http://www.w3.org/1999/xlink">
<g><path style="opacity:0.938" fill="#ffff" d="M 246.5,-0.5 C 252.5,-0.5 258.5,-0.5 264.5,-0.5C 288.16,7.80389 298.327,24.4706 295,49.5C 292.406,58.9228 287.239,66.5895 279.5,72.5C 278.502,81.4754 278.168,90.4754 278.5,99.5C 334.501,99.3333 390.501,99.5 446.5,100C 458.597,103.687 464.097,111.854 463,124.5C 460.941,132.893 455.775,138.393 447.5,141C 440.476,141.169 433.476,141.669 426.5,142.5C 450.167,194.5 473.833,246.5 497.5,298.5C 507.324,300.155 511.158,305.822 509,315.5C 504,325.167 499,334.833 494,344.5C 489.963,349.872 484.796,353.706 478.5,356C 435.205,357.64 391.871,357.973 348.5,357C 339.793,355.285 332.96,350.785 328,343.5C 323.588,334.343 318.922,325.343 314,316.5C 311.547,311.049 312.38,306.215 316.5,302C 319.443,301.058 322.276,299.892 325,298.5C 348.705,246.258 372.538,194.092 396.5,142C 357.168,141.5 317.835,141.333 278.5,141.5C 278.666,151.172 278.5,160.839 278,170.5C 275.633,176.267 271.466,177.934 265.5,175.5C 264.667,174.5 263.833,173.5 263,172.5C 262.333,158.5 262.333,144.5 263,130.5C 263.935,127.898 265.768,126.398 268.5,126C 327.167,125.667 385.833,125.333 444.5,125C 448.588,121.51 448.255,118.51 443.5,116C 384.5,115.667 325.5,115.333 266.5,115C 265.333,113.833 264.167,112.667 263,111.5C 262.832,100.818 262.332,90.1511 261.5,79.5C 257.5,80.8333 253.5,80.8333 249.5,79.5C 248.668,90.1511 248.168,100.818 248,111.5C 246.833,112.667 245.667,113.833 244.5,115C 185.5,115.333 126.5,115.667 67.5,116C 62.7451,118.51 62.4117,121.51 66.5,125C 125.167,125.333 183.833,125.667 242.5,126C 244.329,126.273 245.829,127.107 247,128.5C 248.495,226.085 248.995,323.752 248.5,421.5C 253.167,421.5 257.833,421.5 262.5,421.5C 262.333,347.833 262.5,274.166 263,200.5C 268.862,194.806 273.862,195.473 278,202.5C 278.5,275.499 278.667,348.499 278.5,421.5C 298.169,421.333 317.836,421.5 337.5,422C 345.428,424.257 351.261,429.091 355,436.5C 356.348,443.761 356.848,451.094 356.5,458.5C 369.472,456.246 380.306,459.913 389,469.5C 390.275,471.717 391.275,474.051 392,476.5C 392.667,486.833 392.667,497.167 392,507.5C 391.31,509.35 390.144,510.684 388.5,511.5C 299.833,511.5 211.167,511.5 122.5,511.5C 120.856,510.684 119.69,509.35 119,507.5C 118.333,497.167 118.333,486.833 119,476.5C 121.744,468.755 126.911,463.255 134.5,460C 141.103,458.726 147.77,458.226 154.5,458.5C 151.326,443.947 155.659,432.447 167.5,424C 169.5,423.333 171.5,422.667 173.5,422C 193.164,421.5 212.831,421.333 232.5,421.5C 232.5,328.167 232.5,234.833 232.5,141.5C 193.165,141.333 153.832,141.5 114.5,142C 138.462,194.092 162.295,246.258 186,298.5C 188.724,299.892 191.557,301.058 194.5,302C 198.62,306.215 199.453,311.049 197,316.5C 192.078,325.343 187.412,334.343 183,343.5C 178.04,350.785 171.207,355.285 162.5,357C 119.129,357.973 75.7953,357.64 32.5,356C 26.2038,353.706 21.0371,349.872 17,344.5C 12,334.833 7,325.167 2,315.5C -0.157624,305.822 3.67571,300.155 13.5,298.5C 37.1667,246.5 60.8333,194.5 84.5,142.5C 77.5236,141.669 70.5236,141.169 63.5,141C 49.0625,135.288 44.5625,125.121 50,110.5C 53.3347,104.917 58.168,101.417 64.5,100C 120.499,99.5 176.499,99.3333 232.5,99.5C 232.832,90.4754 232.498,81.4754 231.5,72.5C 215.714,59.3055 211.214,42.9721 218,23.5C 224.12,11.374 233.62,3.37403 246.5,-0.5 Z M 249.5,15.5 C 267.453,14.1325 277.786,22.2991 280.5,40C 278.273,54.3938 269.939,62.5605 255.5,64.5C 241.061,62.5605 232.727,54.3938 230.5,40C 231.949,27.8905 238.282,19.7239 249.5,15.5 Z M 99.5,148.5 C 122.596,198.532 145.596,248.698 168.5,299C 122.835,299.5 77.1679,299.667 31.5,299.5C 53.8889,249.054 76.5556,198.721 99.5,148.5 Z M 410.5,148.5 C 412.136,149.749 413.303,151.416 414,153.5C 436.126,202.081 457.959,250.747 479.5,299.5C 433.832,299.667 388.165,299.5 342.5,299C 365.581,249.005 388.248,198.838 410.5,148.5 Z M 20.5,316.5 C 73.0016,315.169 125.668,315.169 178.5,316.5C 175.255,323.324 171.755,329.991 168,336.5C 165.531,338.652 162.698,340.152 159.5,341C 119.5,341.667 79.5,341.667 39.5,341C 35.5315,340.036 32.3649,337.869 30,334.5C 27.0591,328.28 23.8924,322.28 20.5,316.5 Z M 332.5,315.5 C 385.168,315.333 437.834,315.5 490.5,316C 487.206,322.088 484.039,328.255 481,334.5C 478.635,337.869 475.468,340.036 471.5,341C 431.5,341.667 391.5,341.667 351.5,341C 348.302,340.152 345.469,338.652 343,336.5C 338.962,329.757 335.462,322.757 332.5,315.5 Z M 176.5,437.5 C 229.168,437.333 281.834,437.5 334.5,438C 337,439.167 338.833,441 340,443.5C 340.499,448.489 340.666,453.489 340.5,458.5C 301.499,458.333 262.499,458.5 223.5,459C 216.547,463.74 216.213,468.74 222.5,474C 271.5,474.333 320.5,474.667 369.5,475C 372.573,475.739 374.74,477.572 376,480.5C 376.499,485.489 376.666,490.489 376.5,495.5C 295.833,495.5 215.167,495.5 134.5,495.5C 134.334,490.489 134.501,485.489 135,480.5C 135.785,478.714 136.951,477.214 138.5,476C 157.102,474.705 175.768,474.038 194.5,474C 200.509,469.686 200.843,465.019 195.5,460C 187.277,458.562 178.943,458.062 170.5,458.5C 170.334,453.489 170.501,448.489 171,443.5C 172.36,440.977 174.193,438.977 176.5,437.5 Z"/></g>
</svg>
